<?xml version="1.0" encoding="UTF-8" standalone="no"?>
<!-- Created with Inkscape (http://www.inkscape.org/) -->
<svg
   xmlns:dc="http://purl.org/dc/elements/1.1/"
   xmlns:cc="http://web.resource.org/cc/"
   xmlns:rdf="http://www.w3.org/1999/02/22-rdf-syntax-ns#"
   xmlns:svg="http://www.w3.org/2000/svg"
   xmlns="http://www.w3.org/2000/svg"
   xmlns:xlink="http://www.w3.org/1999/xlink"
   xmlns:sodipodi="http://sodipodi.sourceforge.net/DTD/sodipodi-0.dtd"
   xmlns:inkscape="http://www.inkscape.org/namespaces/inkscape"
   height="512"
   width="1024"
   id="svg2"
   sodipodi:version="0.32"
   inkscape:version="0.45.1"
   version="1.0"
   sodipodi:docbase="C:\Documents and Settings\Operator\Moje dokumenty"
   sodipodi:docname="grafika wektorowa.svg"
   inkscape:output_extension="org.inkscape.output.svg.inkscape">
  <defs
     id="defs4">
    <linearGradient
       inkscape:collect="always"
       id="linearGradient4161">
      <stop
         style="stop-color:#501616;stop-opacity:1;"
         offset="0"
         id="stop4163" />
      <stop
         style="stop-color:#501616;stop-opacity:0;"
         offset="1"
         id="stop4165" />
    </linearGradient>
    <linearGradient
       inkscape:collect="always"
       id="linearGradient4153">
      <stop
         style="stop-color:#000000;stop-opacity:1;"
         offset="0"
         id="stop4155" />
      <stop
         style="stop-color:#000000;stop-opacity:0;"
         offset="1"
         id="stop4157" />
    </linearGradient>
    <linearGradient
       id="linearGradient3152">
      <stop
         style="stop-color:#000000;stop-opacity:1;"
         offset="0"
         id="stop3154" />
      <stop
         id="stop3160"
         offset="0.5"
         style="stop-color:#000000;stop-opacity:0.49803922;" />
      <stop
         style="stop-color:#000000;stop-opacity:0;"
         offset="1"
         id="stop3156" />
    </linearGradient>
    <linearGradient
       inkscape:collect="always"
       xlink:href="#linearGradient4161"
       id="linearGradient7130"
       gradientUnits="userSpaceOnUse"
       gradientTransform="matrix(0.8378302,0,3.0929143e-8,0.7357786,585.61152,-10.168211)"
       x1="-107.72474"
       y1="122.248"
       x2="-92.800858"
       y2="122.248" />
    <linearGradient
       inkscape:collect="always"
       xlink:href="#linearGradient4153"
       id="linearGradient7132"
       gradientUnits="userSpaceOnUse"
       gradientTransform="matrix(0.8378302,0,3.0929143e-8,0.7357786,585.61152,-10.168211)"
       x1="-107.72474"
       y1="122.248"
       x2="-92.800858"
       y2="122.248" />
    <linearGradient
       inkscape:collect="always"
       xlink:href="#linearGradient4161"
       id="linearGradient7169"
       gradientUnits="userSpaceOnUse"
       gradientTransform="matrix(1.168375,0,4.3131456e-8,1.0260615,801.92765,-5.6200417)"
       x1="-107.72474"
       y1="122.248"
       x2="-92.800858"
       y2="122.248" />
    <linearGradient
       inkscape:collect="always"
       xlink:href="#linearGradient4153"
       id="linearGradient7171"
       gradientUnits="userSpaceOnUse"
       gradientTransform="matrix(1.168375,0,4.3131456e-8,1.0260615,801.92765,-5.6200417)"
       x1="-107.72474"
       y1="122.248"
       x2="-92.800858"
       y2="122.248" />
  </defs>
  <sodipodi:namedview
     id="base"
     pagecolor="#ffffff"
     bordercolor="#666666"
     borderopacity="1.0"
     inkscape:pageopacity="0.0"
     inkscape:pageshadow="2"
     inkscape:cx="293.61899"
     inkscape:cy="236.32076"
     inkscape:zoom="0.49497475"
     inkscape:document-units="px"
     inkscape:current-layer="layer1"
     width="1024px"
     height="512px"
     inkscape:window-width="1024"
     inkscape:window-height="721"
     inkscape:window-x="-4"
     inkscape:window-y="-4" />
  <metadata
     id="metadata7">
    <rdf:RDF>
      <cc:Work
         rdf:about="">
        <dc:format>image/svg+xml</dc:format>
        <dc:type
           rdf:resource="http://purl.org/dc/dcmitype/StillImage" />
      </cc:Work>
    </rdf:RDF>
  </metadata>
  <g
     inkscape:groupmode="layer"
     inkscape:label="Warstwa 1"
     id="layer1">
    <path
       style="fill:#000000;fill-opacity:1;fill-rule:evenodd;stroke:#000000;stroke-width:0.83671492;stroke-linecap:round;stroke-linejoin:miter;stroke-miterlimit:4;stroke-dasharray:none;stroke-dashoffset:0;stroke-opacity:1"
       id="path2170"
       d="M 148.1499,105.12265 C 145.1611,101.20383 141.06637,98.637852 137.10273,95.841295 C 132.28618,92.789741 127.29537,90.097782 122.25226,87.445382 C 117.67633,84.987378 112.89601,83.022471 108.08833,81.081018 C 104.13032,79.816121 100.10722,78.861262 96.072395,77.901579 C 92.177334,77.261981 88.226073,77.369489 84.297432,77.255626 C 80.32001,77.241764 76.342547,77.259525 72.365139,77.268567 C 68.380246,77.277322 64.395349,77.277647 60.410454,77.2795 C 48.696349,80.000158 35.237669,89.716768 76.879146,66.085111 C 74.305648,67.304457 72.449954,69.46231 70.291904,71.22795 C 68.082999,73.071919 66.42718,75.448495 64.529035,77.542137 C 62.734591,80.62481 60.918472,83.69589 59.082733,86.755109 C 56.780169,90.22228 55.408497,94.071976 53.93196,97.913918 C 52.469318,102.81904 51.119102,107.76237 49.711552,112.68589 C 48.189329,116.80194 47.834155,121.12641 47.341492,125.43518 C 47.039538,129.94151 47.123233,134.46106 47.12624,138.97415 C 46.76274,144.01783 47.375595,148.96683 47.927216,153.95843 C 48.617501,158.00638 50.267916,161.77794 51.743747,165.58273 C 53.025685,170.41734 56.41595,173.96002 59.398783,177.7935 C 63.115628,182.51694 68.106323,185.6475 72.905866,189.03994 C 77.115936,192.32191 82.042876,193.28802 87.014371,194.63594 C 93.061407,195.35203 99.115499,195.56113 105.16053,196.30555 C 113.45405,197.35317 121.79481,197.38629 130.11736,197.20555 C 147.36822,192.90856 133.82643,197.27731 118.49591,205.50901 C 121.83308,202.12949 124.8439,198.42533 127.97049,194.84597 C 131.52389,191.14812 134.44408,186.92747 137.50465,182.83439 C 140.56299,179.25316 142.57954,175.01524 144.90568,171.03496 C 146.12369,168.25134 142.38707,167.80236 141.32726,166.44208 C 137.06282,163.88526 132.4654,161.96644 127.95321,159.88819 C 123.74327,157.78604 119.83685,155.18771 115.80123,152.78512 C 112.4979,150.42945 108.87919,148.68588 105.32313,146.77317 C 101.90792,145.05106 98.76889,143.03653 95.59431,140.95386 C 93.700462,139.5285 91.71424,138.25022 89.769282,136.89496 L 114.59838,121.02988 C 116.55456,122.45028 118.57342,123.78471 120.46565,125.29017 C 123.58698,127.03403 126.66488,128.9251 129.85753,130.5831 C 133.41753,132.65043 137.07078,134.53914 140.4432,136.92701 C 144.3554,139.24416 148.18951,141.69493 152.24074,143.76544 C 156.88826,145.85317 161.57384,147.868 166.02803,150.35016 C 168.66672,152.92844 171.44458,154.02619 171.47284,158.35546 C 169.62193,162.98222 167.73341,167.32378 164.3104,171.18966 C 161.28884,175.35081 158.41914,179.64461 155.00593,183.50218 C 151.7412,187.05288 148.46324,190.56213 145.62453,194.49033 C 133.39375,201.91863 121.99106,214.45083 106.77307,214.30866 C 98.340171,214.16851 89.891317,214.02682 81.494828,213.11521 C 75.361833,212.57482 69.184522,212.37564 63.117183,211.27265 C 57.859509,209.8352 52.808599,208.24893 48.388575,204.87679 C 43.354757,201.31374 38.434281,197.59957 34.42386,192.84423 C 31.201596,188.72441 27.529817,184.85098 25.944457,179.7345 C 24.46107,175.74975 22.8619,171.78119 22.042168,167.58983 C 21.406619,162.50018 20.716616,157.44756 20.987458,152.2983 C 20.99749,147.73142 20.98747,143.1641 21.08556,138.59795 C 21.494653,134.06164 21.734011,129.5002 23.271176,125.1528 C 24.744018,120.24348 26.307185,115.37533 27.333437,110.34086 C 28.698085,106.32773 29.997201,102.33909 32.226681,98.690961 C 34.011671,95.60457 35.903726,92.569366 37.555089,89.432091 C 39.314198,87.054003 40.382869,84.252906 43.046585,82.617956 C 45.068224,80.585543 46.904188,78.305283 49.350641,76.746227 C 65.742602,67.367587 69.862188,61.40803 84.182426,60.006707 C 88.166304,60.002955 92.150182,60.002371 96.134061,59.99152 C 100.12243,59.985124 104.11119,59.959445 108.09925,60.023112 C 112.14288,60.198803 116.21324,60.221172 120.18437,61.124279 C 124.29277,62.249766 128.45938,63.234064 132.44184,64.776486 C 137.24398,66.861248 142.02999,68.95586 146.61785,71.494611 C 151.77843,74.15482 156.85133,76.953064 161.69121,80.169045 C 165.88569,83.200899 170.2129,86.023437 173.59189,90.024121 L 148.1499,105.12265 z " />
    <path
       style="fill:#ff0000;fill-opacity:1;fill-rule:evenodd;stroke:#000000;stroke-width:1.39452481px;stroke-linecap:butt;stroke-linejoin:miter;stroke-opacity:1"
       d="M 255.21817,66.65173 L 183.49976,216.0651 L 301.03828,216.0651 L 255.21817,66.65173 z "
       id="path2172" />
    <path
       style="fill:#008000;fill-rule:evenodd;stroke:#000000;stroke-width:1.39452481px;stroke-linecap:butt;stroke-linejoin:miter;stroke-opacity:1"
       d="M 265.17907,94.542226 L 370.76452,62.667374 L 356.81927,154.30757 L 265.17907,94.542226 z "
       id="path2174" />
    <path
       style="fill:#ffff00;fill-rule:evenodd;stroke:#000000;stroke-width:1.39452481px;stroke-linecap:butt;stroke-linejoin:miter;stroke-opacity:1"
       d="M 265.17907,96.534405 L 372.7567,208.09638 L 342.87403,210.08856 L 265.17907,96.534405 z "
       id="path2176" />
    <path
       style="fill:#ff00ff;fill-rule:evenodd;stroke:#000000;stroke-width:0.64792168px;stroke-linecap:butt;stroke-linejoin:miter;stroke-opacity:1"
       d="M 361.17693,97.523541 L 312.12,82.7139 L 318.59921,125.29161 L 361.17693,97.523541 z "
       id="path2178" />
    <path
       sodipodi:type="spiral"
       style="fill:none;fill-rule:evenodd;stroke:#000000;stroke-width:1px;stroke-linecap:butt;stroke-linejoin:miter;stroke-opacity:1"
       id="path3172"
       sodipodi:cx="452.54834"
       sodipodi:cy="65.443146"
       sodipodi:expansion="1"
       sodipodi:revolution="3"
       sodipodi:radius="95.131485"
       sodipodi:argument="-18.011574"
       sodipodi:t0="0"
       d="M 452.54834,65.443146 C 455.73913,68.988469 449.34354,71.493399 446.65578,70.746441 C 439.37212,68.722233 438.68422,59.22011 441.94175,53.658024 C 447.7687,43.708755 461.56522,43.233417 470.22602,49.53326 C 482.9361,58.778532 483.18311,77.366142 473.76152,89.01339 C 461.20403,104.53734 437.67905,104.5372 423.08553,91.959623 C 404.72108,76.132022 404.9772,47.608344 420.72857,30.087779 C 439.80559,8.8680269 473.3595,9.3846015 493.79627,28.320078 C 517.88029,50.634882 517.10077,89.237428 494.9747,112.58363 C 469.42928,139.53775 425.76642,138.49379 399.51529,113.1728 C 369.68709,84.401495 370.99647,35.670421 399.51539,6.5175345 C 431.5093,-26.187599 485.31418,-24.612157 517.36651,7.1068968 C 552.95067,42.321058 551.10871,101.20384 516.18788,136.15388"
       transform="matrix(1.3945248,0,0,1.3945248,-117.96842,61.106563)" />
    <path
       sodipodi:type="arc"
       style="fill:#d40000;fill-opacity:1;fill-rule:evenodd;stroke:#000000;stroke-width:0.60000002;stroke-linecap:round;stroke-linejoin:miter;stroke-miterlimit:4;stroke-dasharray:none;stroke-dashoffset:0;stroke-opacity:1"
       id="path3174"
       sodipodi:cx="434.3656"
       sodipodi:cy="105.84925"
       sodipodi:rx="4.0406103"
       sodipodi:ry="57.578693"
       d="M 438.40621 105.84925 A 4.0406103 57.578693 0 1 1  430.32499,105.84925 A 4.0406103 57.578693 0 1 1  438.40621 105.84925 z"
       transform="matrix(1.3945248,0,0,1.3945248,-13.725893,7.576617)" />
    <path
       sodipodi:type="arc"
       style="fill:#d40000;fill-opacity:1;fill-rule:evenodd;stroke:#000000;stroke-width:0.60000002;stroke-linecap:round;stroke-linejoin:miter;stroke-miterlimit:4;stroke-dasharray:none;stroke-dashoffset:0;stroke-opacity:1"
       id="path3176"
       sodipodi:cx="456.08386"
       sodipodi:cy="62.412689"
       sodipodi:rx="34.850262"
       sodipodi:ry="4.0406103"
       d="M 490.93412 62.412689 A 34.850262 4.0406103 0 1 1  421.2336,62.412689 A 34.850262 4.0406103 0 1 1  490.93412 62.412689 z"
       transform="matrix(1.3945248,0,0,1.3945248,-13.725893,7.576617)" />
    <path
       sodipodi:type="arc"
       style="fill:#d40000;fill-opacity:1;fill-rule:evenodd;stroke:#000000;stroke-width:0.60000002;stroke-linecap:round;stroke-linejoin:miter;stroke-miterlimit:4;stroke-dasharray:none;stroke-dashoffset:0;stroke-opacity:1"
       id="path3178"
       sodipodi:cx="441.94174"
       sodipodi:cy="86.151276"
       sodipodi:rx="21.718279"
       sodipodi:ry="4.5456862"
       d="M 463.66002 86.151276 A 21.718279 4.5456862 0 1 1  420.22346,86.151276 A 21.718279 4.5456862 0 1 1  463.66002 86.151276 z"
       transform="matrix(1.3945248,0,0,1.3945248,-13.725893,7.576617)" />
    <rect
       style="fill:url(#linearGradient7169);fill-opacity:1;fill-rule:evenodd;stroke:url(#linearGradient7171);stroke-width:0.66180485;stroke-linecap:round;stroke-linejoin:miter;stroke-miterlimit:4;stroke-dasharray:none;stroke-dashoffset:0;stroke-opacity:1"
       id="rect3182"
       width="16.730482"
       height="167.25407"
       x="676.41785"
       y="36.186871"
       transform="matrix(0.9980097,6.3059946e-2,0.1129609,0.9935994,0,0)" />
    <rect
       style="fill:#d40000;fill-opacity:1;fill-rule:evenodd;stroke:#000000;stroke-width:0.63199979;stroke-linecap:round;stroke-linejoin:miter;stroke-miterlimit:4;stroke-dasharray:none;stroke-dashoffset:0;stroke-opacity:1"
       id="rect3162"
       width="112.89935"
       height="165.0206"
       x="408.77661"
       y="59.293228" />
    <path
       transform="matrix(12.98856,0,0,12.98856,-3861.0472,-585.37141)"
       style="font-size:12px;font-style:normal;font-variant:normal;font-weight:normal;font-stretch:normal;text-align:start;line-height:125%;writing-mode:lr-tb;text-anchor:start;font-family:monospace"
       d="M 334.5332,59.450088 L 331.29883,59.450088 L 330.63672,61.248917 L 331.58008,61.248917 C 331.69726,61.248917 331.78125,61.271378 331.83203,61.316299 C 331.88281,61.361222 331.9082,61.420792 331.9082,61.49501 C 331.9082,61.565323 331.88281,61.623917 331.83203,61.670792 C 331.78125,61.717667 331.69726,61.741104 331.58008,61.741104 L 329.74023,61.741104 C 329.62305,61.741104 329.53906,61.717667 329.48828,61.670792 C 329.4375,61.623917 329.41211,61.565323 329.41211,61.49501 C 329.41211,61.420792 329.4375,61.361222 329.48828,61.316299 C 329.53906,61.271378 329.62305,61.248917 329.74023,61.248917 L 330.12109,61.248917 L 332.29492,55.377823 L 330.8418,55.377823 C 330.72461,55.377829 330.64062,55.355368 330.58984,55.31044 C 330.53906,55.265525 330.51367,55.205954 330.51367,55.131729 C 330.51367,55.057517 330.53906,54.997947 330.58984,54.953018 C 330.64062,54.908103 330.72461,54.885642 330.8418,54.885635 L 333.32031,54.885635 L 335.72266,61.248917 L 336.10352,61.248917 C 336.2207,61.248917 336.30468,61.271378 336.35547,61.316299 C 336.40624,61.361222 336.43163,61.420792 336.43164,61.49501 C 336.43163,61.565323 336.40624,61.623917 336.35547,61.670792 C 336.30468,61.717667 336.2207,61.741104 336.10352,61.741104 L 334.26953,61.741104 C 334.14843,61.741104 334.0625,61.717667 334.01172,61.670792 C 333.96093,61.623917 333.93554,61.565323 333.93555,61.49501 C 333.93554,61.420792 333.96093,61.361222 334.01172,61.316299 C 334.0625,61.271378 334.14843,61.248917 334.26953,61.248917 L 335.20703,61.248917 L 334.5332,59.450088 z M 334.3457,58.957901 L 332.98633,55.377823 L 332.80469,55.377823 L 331.48633,58.957901 L 334.3457,58.957901 z "
       id="flowRoot3164" />
    <path
       sodipodi:type="arc"
       style="fill:#ffd5d5;fill-opacity:1;fill-rule:evenodd;stroke:#000000;stroke-width:0.60000002;stroke-linecap:round;stroke-linejoin:miter;stroke-miterlimit:4;stroke-dasharray:none;stroke-dashoffset:0;stroke-opacity:1"
       id="path4169"
       sodipodi:cx="607.60675"
       sodipodi:cy="111.91016"
       sodipodi:rx="51.012703"
       sodipodi:ry="54.548237"
       d="M 658.61945 111.91016 A 51.012703 54.548237 0 1 1  556.59405,111.91016 A 51.012703 54.548237 0 1 1  658.61945 111.91016 z"
       transform="matrix(1.3945248,0,0,1.3945248,-44.716914,7.576617)" />
    <path
       style="fill:#000000;fill-opacity:1;fill-rule:evenodd;stroke:#000000;stroke-width:15.33977318;stroke-linecap:butt;stroke-linejoin:miter;stroke-miterlimit:4;stroke-dasharray:none;stroke-opacity:1"
       d="M 773.72777,114.33422 L 775.13647,203.08123"
       id="path4171" />
    <path
       sodipodi:type="arc"
       style="fill:#00ff00;fill-opacity:1;fill-rule:evenodd;stroke:#000000;stroke-width:0.60000002;stroke-linecap:round;stroke-linejoin:miter;stroke-miterlimit:4;stroke-dasharray:none;stroke-dashoffset:0;stroke-opacity:1"
       id="path7082"
       sodipodi:cx="456.08386"
       sodipodi:cy="62.412689"
       sodipodi:rx="34.850262"
       sodipodi:ry="4.0406103"
       d="M 490.93412 62.412689 A 34.850262 4.0406103 0 1 1  421.2336,62.412689 A 34.850262 4.0406103 0 1 1  490.93412 62.412689 z"
       transform="matrix(1.0674728,-0.8973301,0.8973301,1.0674728,264.6743,476.68974)" />
    <path
       style="fill:#ac9393;fill-rule:evenodd;stroke:#000000;stroke-width:0.88976824px;stroke-linecap:butt;stroke-linejoin:miter;stroke-opacity:1"
       d="M 770.39917,124.92154 L 839.03845,196.103 L 819.97197,197.37409 L 770.39917,124.92154 z "
       id="path7084" />
    <rect
       style="fill:#f2f2f2;fill-opacity:1;fill-rule:evenodd;stroke:#000000;stroke-width:0.63199979;stroke-linecap:round;stroke-linejoin:miter;stroke-miterlimit:4;stroke-dasharray:none;stroke-dashoffset:0;stroke-opacity:1"
       id="rect7086"
       width="112.89935"
       height="165.0206"
       x="889.13739"
       y="-244.73973"
       transform="scale(1,-1)" />
    <path
       transform="matrix(-9.8872045,-7.3416054,-8.5491987,10.71464,4739.3232,1940.1025)"
       style="font-size:12px;font-style:normal;font-variant:normal;font-weight:normal;font-stretch:normal;text-align:start;line-height:125%;writing-mode:lr-tb;text-anchor:start;fill:#ff9955;font-family:monospace"
       d="M 334.5332,59.450088 L 331.29883,59.450088 L 330.63672,61.248917 L 331.58008,61.248917 C 331.69726,61.248917 331.78125,61.271378 331.83203,61.316299 C 331.88281,61.361222 331.9082,61.420792 331.9082,61.49501 C 331.9082,61.565323 331.88281,61.623917 331.83203,61.670792 C 331.78125,61.717667 331.69726,61.741104 331.58008,61.741104 L 329.74023,61.741104 C 329.62305,61.741104 329.53906,61.717667 329.48828,61.670792 C 329.4375,61.623917 329.41211,61.565323 329.41211,61.49501 C 329.41211,61.420792 329.4375,61.361222 329.48828,61.316299 C 329.53906,61.271378 329.62305,61.248917 329.74023,61.248917 L 330.12109,61.248917 L 332.29492,55.377823 L 330.8418,55.377823 C 330.72461,55.377829 330.64062,55.355368 330.58984,55.31044 C 330.53906,55.265525 330.51367,55.205954 330.51367,55.131729 C 330.51367,55.057517 330.53906,54.997947 330.58984,54.953018 C 330.64062,54.908103 330.72461,54.885642 330.8418,54.885635 L 333.32031,54.885635 L 335.72266,61.248917 L 336.10352,61.248917 C 336.2207,61.248917 336.30468,61.271378 336.35547,61.316299 C 336.40624,61.361222 336.43163,61.420792 336.43164,61.49501 C 336.43163,61.565323 336.40624,61.623917 336.35547,61.670792 C 336.30468,61.717667 336.2207,61.741104 336.10352,61.741104 L 334.26953,61.741104 C 334.14843,61.741104 334.0625,61.717667 334.01172,61.670792 C 333.96093,61.623917 333.93554,61.565323 333.93555,61.49501 C 333.93554,61.420792 333.96093,61.361222 334.01172,61.316299 C 334.0625,61.271378 334.14843,61.248917 334.26953,61.248917 L 335.20703,61.248917 L 334.5332,59.450088 z M 334.3457,58.957901 L 332.98633,55.377823 L 332.80469,55.377823 L 331.48633,58.957901 L 334.3457,58.957901 z "
       id="flowRoot7088" />
    <path
       transform="matrix(1.704603,0,0,1.704603,-126.08564,-134.02231)"
       style="font-size:92px;font-style:normal;font-variant:normal;font-weight:normal;font-stretch:normal;text-align:start;line-height:100%;writing-mode:lr-tb;text-anchor:start;font-family:courier"
       d="M 170.92188,317.56835 L 166.25,317.61328 L 157.93945,293.35546 L 149.67383,317.61328 L 145.00195,317.56835 L 137.18555,282.48437 L 135.34375,282.48437 C 134.44531,282.48441 133.80143,282.30472 133.41211,281.94531 C 133.02278,281.58597 132.82812,281.12178 132.82813,280.55273 C 132.82812,280.0137 133.02278,279.56449 133.41211,279.20507 C 133.80143,278.84574 134.44531,278.66605 135.34375,278.66601 L 145.7207,278.66601 C 146.61912,278.66605 147.263,278.84574 147.65234,279.20507 C 148.04165,279.56449 148.23631,280.02868 148.23633,280.59765 C 148.23631,281.13675 148.04165,281.58597 147.65234,281.94531 C 147.263,282.30472 146.61912,282.48441 145.7207,282.48437 L 140.91406,282.48437 L 147.60742,312.40234 L 155.64844,288.5039 L 160.14063,288.5039 L 168.40625,312.40234 L 174.83008,282.48437 L 170.06836,282.48437 C 169.16988,282.48441 168.51852,282.30472 168.11426,281.94531 C 167.70992,281.58597 167.50778,281.12178 167.50781,280.55273 C 167.50778,280.0137 167.70244,279.56449 168.0918,279.20507 C 168.48108,278.84574 169.13994,278.66605 170.06836,278.66601 L 180.40039,278.66601 C 181.32873,278.66605 181.98758,278.84574 182.37695,279.20507 C 182.76622,279.56449 182.96088,280.02868 182.96094,280.59765 C 182.96088,281.13675 182.76622,281.58597 182.37695,281.94531 C 181.98758,282.30472 181.32873,282.48441 180.40039,282.48437 L 178.60352,282.48437 L 170.92188,317.56835 z M 233.49805,299.01562 L 195.04492,299.01562 C 195.70377,303.89714 197.74771,307.8278 201.17676,310.80761 C 204.60578,313.78743 208.85089,315.27734 213.91211,315.27734 C 216.72718,315.27734 219.67705,314.81315 222.76172,313.88476 C 225.84631,312.95638 228.36194,311.72852 230.30859,310.20117 C 230.87756,309.75196 231.3717,309.52735 231.79102,309.52734 C 232.27014,309.52735 232.68941,309.71452 233.04883,310.08886 C 233.40816,310.46322 233.58784,310.90495 233.58789,311.41406 C 233.58784,311.92318 233.34826,312.41732 232.86914,312.89648 C 231.43159,314.39388 228.87854,315.79394 225.20996,317.09667 C 221.54131,318.39941 217.77536,319.05078 213.91211,319.05078 C 207.44334,319.05078 202.04523,316.93196 197.71777,312.69433 C 193.39029,308.45671 191.22656,303.32813 191.22656,297.30859 C 191.22656,291.82815 193.25553,287.12633 197.31348,283.20312 C 201.3714,279.27998 206.39516,277.31839 212.38477,277.31835 C 218.554,277.31839 223.63017,279.33239 227.61328,283.36035 C 231.59631,287.38837 233.55789,292.60679 233.49805,299.01562 L 233.49805,299.01562 z M 229.67969,295.19726 C 228.93095,291.03453 226.96187,287.65042 223.77246,285.04492 C 220.58297,282.43948 216.78708,281.13675 212.38477,281.13671 C 207.9824,281.13675 204.19399,282.42451 201.01953,285 C 197.84504,287.57555 195.86848,290.97463 195.08984,295.19726 L 229.67969,295.19726 z M 260.58594,300.76757 L 260.58594,317.56835 L 251.73633,317.56835 C 250.83788,317.56835 250.194,317.38867 249.80469,317.02929 C 249.41536,316.66992 249.22069,316.2207 249.2207,315.68164 C 249.22069,315.11263 249.41536,314.65592 249.80469,314.31152 C 250.194,313.96712 250.83788,313.79492 251.73633,313.79492 L 256.8125,313.79492 L 256.8125,265.00976 L 251.73633,265.00976 C 250.83788,265.00981 250.194,264.83013 249.80469,264.4707 C 249.41536,264.11138 249.22069,263.64718 249.2207,263.07812 C 249.22069,262.53911 249.41536,262.08989 249.80469,261.73046 C 250.194,261.37115 250.83788,261.19146 251.73633,261.1914 L 260.58594,261.1914 L 260.58594,295.96093 L 276.62305,282.48437 L 274.69141,282.48437 C 273.79294,282.48441 273.14906,282.30472 272.75977,281.94531 C 272.37041,281.58597 272.17575,281.13675 272.17578,280.59765 C 272.17575,280.02868 272.37041,279.56449 272.75977,279.20507 C 273.14906,278.84574 273.79294,278.66605 274.69141,278.66601 L 286.77539,278.66601 C 287.70373,278.66605 288.36258,278.84574 288.75195,279.20507 C 289.14123,279.56449 289.33589,280.02868 289.33594,280.59765 C 289.33589,281.13675 289.14123,281.58597 288.75195,281.94531 C 288.36258,282.30472 287.70373,282.48441 286.77539,282.48437 L 282.41797,282.48437 L 267.68359,294.79296 L 286.32617,313.79492 L 290.68359,313.79492 C 291.61193,313.79492 292.27078,313.96712 292.66016,314.31152 C 293.04943,314.65592 293.24409,315.11263 293.24414,315.68164 C 293.24409,316.2207 293.04943,316.66992 292.66016,317.02929 C 292.27078,317.38867 291.61193,317.56835 290.68359,317.56835 L 278.46484,317.56835 C 277.56637,317.56835 276.92249,317.38867 276.5332,317.02929 C 276.14384,316.66992 275.94918,316.2207 275.94922,315.68164 C 275.94918,315.11263 276.14384,314.65592 276.5332,314.31152 C 276.92249,313.96712 277.56637,313.79492 278.46484,313.79492 L 281.11523,313.79492 L 264.89844,297.1289 L 260.58594,300.76757 z M 315.66016,278.66601 L 336.14453,278.66601 C 337.04293,278.66605 337.68681,278.84574 338.07617,279.20507 C 338.46545,279.56449 338.66011,280.02868 338.66016,280.59765 C 338.66011,281.13675 338.46545,281.58597 338.07617,281.94531 C 337.68681,282.30472 337.04293,282.48441 336.14453,282.48437 L 315.66016,282.48437 L 315.66016,307.5957 C 315.66014,309.7819 316.53611,311.60873 318.28809,313.07617 C 320.04001,314.54362 322.60805,315.27734 325.99219,315.27734 C 328.53773,315.27734 331.29293,314.89551 334.25781,314.13183 C 337.22261,313.36816 339.5286,312.50716 341.17578,311.54882 C 341.77469,311.15951 342.26883,310.96485 342.6582,310.96484 C 343.13732,310.96485 343.55659,311.15202 343.91602,311.52636 C 344.27534,311.90072 344.45503,312.34245 344.45508,312.85156 C 344.45503,313.30078 344.26037,313.72005 343.87109,314.10937 C 342.91271,315.09765 340.58427,316.16829 336.88574,317.32128 C 333.18714,318.47428 329.6458,319.05078 326.26172,319.05078 C 321.85935,319.05078 318.35545,318.01757 315.75,315.95117 C 313.14451,313.88476 311.84178,311.09961 311.8418,307.5957 L 311.8418,282.48437 L 304.87891,282.48437 C 303.98046,282.48441 303.33658,282.30472 302.94727,281.94531 C 302.55794,281.58597 302.36327,281.12178 302.36328,280.55273 C 302.36327,280.0137 302.55794,279.56449 302.94727,279.20507 C 303.33658,278.84574 303.98046,278.66605 304.87891,278.66601 L 311.8418,278.66601 L 311.8418,267.52539 C 311.84178,266.627 312.02147,265.98312 312.38086,265.59375 C 312.74022,265.20447 313.18944,265.00981 313.72852,265.00976 C 314.29751,265.00981 314.7617,265.20447 315.12109,265.59375 C 315.48045,265.98312 315.66014,266.627 315.66016,267.52539 L 315.66016,278.66601 z M 399.66406,298.20703 C 399.66401,303.95704 397.6051,308.86849 393.4873,312.9414 C 389.36943,317.01432 384.40557,319.05078 378.5957,319.05078 C 372.72589,319.05078 367.73957,317.00683 363.63672,312.91894 C 359.53385,308.83106 357.48242,303.92709 357.48242,298.20703 C 357.48242,292.45705 359.53385,287.53811 363.63672,283.45019 C 367.73957,279.36234 372.72589,277.31839 378.5957,277.31835 C 384.40557,277.31839 389.36943,279.35485 393.4873,283.42773 C 397.6051,287.50068 399.66401,292.4271 399.66406,298.20703 L 399.66406,298.20703 z M 395.8457,298.20703 C 395.84566,293.47528 394.16109,289.44729 390.79199,286.12304 C 387.42282,282.79886 383.34242,281.13675 378.55078,281.13671 C 373.75909,281.13675 369.67869,282.80635 366.30957,286.1455 C 362.94042,289.48472 361.25585,293.50523 361.25586,298.20703 C 361.25585,302.87892 362.94042,306.89193 366.30957,310.24609 C 369.67869,313.60026 373.75909,315.27734 378.55078,315.27734 C 383.34242,315.27734 387.42282,313.60775 390.79199,310.26855 C 394.16109,306.92937 395.84566,302.90886 395.8457,298.20703 L 395.8457,298.20703 z M 429.22266,278.66601 L 429.22266,288.18945 C 434.13409,283.75719 437.81019,280.90465 440.25098,279.63183 C 442.6917,278.35908 444.94527,277.72269 447.01172,277.72265 C 449.25777,277.72269 451.34663,278.47888 453.27832,279.99121 C 455.20991,281.50361 456.17573,282.64912 456.17578,283.42773 C 456.17573,283.99677 455.98856,284.46845 455.61426,284.84277 C 455.23986,285.21715 454.76818,285.40432 454.19922,285.40429 C 453.89969,285.40432 453.64513,285.35192 453.43555,285.24707 C 453.22586,285.14228 452.83654,284.80537 452.26758,284.23632 C 451.21936,283.18818 450.30595,282.46943 449.52734,282.08007 C 448.74866,281.69079 447.98498,281.49613 447.23633,281.49609 C 445.58915,281.49613 443.60511,282.15498 441.28418,283.47265 C 438.96318,284.79039 434.94268,288.00979 429.22266,293.13085 L 429.22266,313.79492 L 445.93359,313.79492 C 446.86194,313.79492 447.52079,313.96712 447.91016,314.31152 C 448.29944,314.65592 448.4941,315.11263 448.49414,315.68164 C 448.4941,316.2207 448.29944,316.66992 447.91016,317.02929 C 447.52079,317.38867 446.86194,317.56835 445.93359,317.56835 L 416.33008,317.56835 C 415.43163,317.56835 414.78775,317.39615 414.39844,317.05175 C 414.00911,316.70735 413.81445,316.26562 413.81445,315.72656 C 413.81445,315.21745 414.00162,314.79069 414.37598,314.44628 C 414.75032,314.10189 415.40168,313.92969 416.33008,313.92968 L 425.44922,313.92968 L 425.44922,282.48437 L 418.48633,282.48437 C 417.58788,282.48441 416.944,282.30472 416.55469,281.94531 C 416.16535,281.58597 415.97069,281.12178 415.9707,280.55273 C 415.97069,280.0137 416.15787,279.56449 416.53223,279.20507 C 416.90656,278.84574 417.55793,278.66605 418.48633,278.66601 L 429.22266,278.66601 z M 509.99219,298.20703 C 509.99214,303.95704 507.93322,308.86849 503.81543,312.9414 C 499.69755,317.01432 494.73369,319.05078 488.92383,319.05078 C 483.05401,319.05078 478.06769,317.00683 473.96484,312.91894 C 469.86197,308.83106 467.81054,303.92709 467.81055,298.20703 C 467.81054,292.45705 469.86197,287.53811 473.96484,283.45019 C 478.06769,279.36234 483.05401,277.31839 488.92383,277.31835 C 494.73369,277.31839 499.69755,279.35485 503.81543,283.42773 C 507.93322,287.50068 509.99214,292.4271 509.99219,298.20703 L 509.99219,298.20703 z M 506.17383,298.20703 C 506.17378,293.47528 504.48921,289.44729 501.12012,286.12304 C 497.75094,282.79886 493.67054,281.13675 488.87891,281.13671 C 484.08722,281.13675 480.00682,282.80635 476.6377,286.1455 C 473.26854,289.48472 471.58397,293.50523 471.58398,298.20703 C 471.58397,302.87892 473.26854,306.89193 476.6377,310.24609 C 480.00682,313.60026 484.08722,315.27734 488.87891,315.27734 C 493.67054,315.27734 497.75094,313.60775 501.12012,310.26855 C 504.48921,306.92937 506.17378,302.90886 506.17383,298.20703 L 506.17383,298.20703 z M 557.07031,317.56835 L 552.39844,317.61328 L 544.08789,293.35546 L 535.82227,317.61328 L 531.15039,317.56835 L 523.33398,282.48437 L 521.49219,282.48437 C 520.59375,282.48441 519.94987,282.30472 519.56055,281.94531 C 519.17122,281.58597 518.97656,281.12178 518.97656,280.55273 C 518.97656,280.0137 519.17122,279.56449 519.56055,279.20507 C 519.94987,278.84574 520.59375,278.66605 521.49219,278.66601 L 531.86914,278.66601 C 532.76756,278.66605 533.41144,278.84574 533.80078,279.20507 C 534.19009,279.56449 534.38475,280.02868 534.38477,280.59765 C 534.38475,281.13675 534.19009,281.58597 533.80078,281.94531 C 533.41144,282.30472 532.76756,282.48441 531.86914,282.48437 L 527.0625,282.48437 L 533.75586,312.40234 L 541.79688,288.5039 L 546.28906,288.5039 L 554.55469,312.40234 L 560.97852,282.48437 L 556.2168,282.48437 C 555.31832,282.48441 554.66695,282.30472 554.2627,281.94531 C 553.85836,281.58597 553.65621,281.12178 553.65625,280.55273 C 553.65621,280.0137 553.85087,279.56449 554.24023,279.20507 C 554.62952,278.84574 555.28837,278.66605 556.2168,278.66601 L 566.54883,278.66601 C 567.47716,278.66605 568.13602,278.84574 568.52539,279.20507 C 568.91466,279.56449 569.10932,280.02868 569.10938,280.59765 C 569.10932,281.13675 568.91466,281.58597 568.52539,281.94531 C 568.13602,282.30472 567.47716,282.48441 566.54883,282.48437 L 564.75195,282.48437 L 557.07031,317.56835 z M 610.07813,317.56835 L 610.07813,312.13281 C 604.59762,316.74479 598.74281,319.05078 592.51367,319.05078 C 587.99152,319.05078 584.45767,317.90527 581.91211,315.61425 C 579.36653,313.32324 578.09374,310.51563 578.09375,307.1914 C 578.09374,303.53777 579.77083,300.34832 583.125,297.62304 C 586.47915,294.8978 591.37563,293.53518 597.81445,293.53515 C 599.5514,293.53518 601.43812,293.64748 603.47461,293.87207 C 605.51103,294.0967 607.7122,294.44859 610.07813,294.92773 L 610.07813,288.81835 C 610.07809,286.75198 609.11975,284.95511 607.20313,283.42773 C 605.28642,281.90042 602.41143,281.13675 598.57813,281.13671 C 595.64321,281.13675 591.52537,281.99027 586.22461,283.69726 C 585.26626,283.99677 584.65233,284.14651 584.38281,284.14648 C 583.90363,284.14651 583.49185,283.96683 583.14746,283.60742 C 582.80305,283.24808 582.63085,282.79886 582.63086,282.25976 C 582.63085,281.75068 582.78059,281.34639 583.08008,281.04687 C 583.49934,280.59769 585.19139,279.98376 588.15625,279.20507 C 592.8281,277.9473 596.36195,277.31839 598.75781,277.31835 C 603.5195,277.31839 607.23304,278.49385 609.89844,280.84472 C 612.56376,283.19567 613.89644,285.85354 613.89648,288.81835 L 613.89648,313.79492 L 618.92773,313.79492 C 619.85607,313.79492 620.51493,313.96712 620.9043,314.31152 C 621.29357,314.65592 621.48823,315.11263 621.48828,315.68164 C 621.48823,316.2207 621.29357,316.66992 620.9043,317.02929 C 620.51493,317.38867 619.85607,317.56835 618.92773,317.56835 L 610.07813,317.56835 z M 610.07813,298.79101 C 608.31116,298.28192 606.43942,297.90757 604.46289,297.66796 C 602.4863,297.4284 600.40492,297.30861 598.21875,297.30859 C 592.73826,297.30861 588.45571,298.49155 585.37109,300.85742 C 583.03514,302.62436 581.86718,304.73569 581.86719,307.1914 C 581.86718,309.46745 582.75813,311.38412 584.54004,312.9414 C 586.32193,314.4987 588.9199,315.27734 592.33398,315.27734 C 595.59828,315.27734 598.63051,314.62597 601.43066,313.32324 C 604.23076,312.02051 607.11325,309.94662 610.07813,307.10156 L 610.07813,298.79101 z "
       id="flowRoot7096" />
  </g>
</svg>
